<svg xmlns="http://www.w3.org/2000/svg" viewBox="0 0 459.343 459.343"><g transform="translate(-5.61 115.634)"><path fill="#fff" stroke="#fff" stroke-width="4.94" d="M54.492 134.644h332.206v64.897H54.492z" paint-order="stroke markers fill"/><ellipse cx="346.572" cy="75.24" fill="#fff" stroke="#fff" stroke-width="5" paint-order="stroke markers fill" rx="52.609" ry="52.04"/><path fill="#298c8b" d="M341.168 122.45c-17.634-2.095-34.253-18.055-38.1-36.591-1.604-7.725-.71-19.46 2.025-26.596 4.138-10.796 15.059-21.602 26.026-25.752 26.168-9.902 55.186 7.554 60 36.092.661 3.925.948 8.794.638 10.82-.311 2.026-.767 5.195-1.013 7.043-.246 1.848-2.092 6.646-4.104 10.663-6.572 13.124-19.826 23.158-31.867 24.126-2.835.228-5.604.537-6.154.687-.55.15-3.903-.07-7.45-.492zm12.267-9.436c5.994-2.042 13.547-8.842 16.59-14.935 3.788-7.584 4.253-24.515.635-23.127-.756.29-8.728 5.394-17.715 11.341-8.986 5.947-19.594 12.838-23.573 15.313-3.978 2.475-7.09 4.95-6.915 5.5.176.55 3.136 2.463 6.578 4.25 5.248 2.726 7.346 3.25 12.993 3.25 3.704 0 8.837-.716 11.407-1.592zm-1.566-27.733c10.587-6.941 19.25-12.88 19.25-13.197 0-1.25-2.956-6.196-4.438-7.426-1.357-1.126-3.444.52-15.355 12.106-7.581 7.374-15.674 14.927-17.985 16.784-2.31 1.856-4.888 4.426-5.73 5.71l-1.53 2.335 3.269-1.846c1.798-1.015 11.931-7.525 22.519-14.466zm15.5-25.536c5.362-5.213 9.75-9.83 9.75-10.258 0-1.405-6.55-5.81-10.945-7.361-5.603-1.977-14.669-1.937-20.18.089-2.605.958-8.219 1.707-13.875 1.853-9.718.25-16 1.796-16 3.935 0 .661 1.462 1.738 3.25 2.393 1.787.655 4.566 2.25 6.175 3.546l2.925 2.355-1.675 5.97c-.922 3.284-1.675 7.156-1.675 8.606 0 5.263 2.19 12.64 5.125 17.27l3.001 4.732 12.187-11.825a39372 39372 0 0 0 21.937-21.305zm-19.738-1.118c-1.693-2.74 4.81-8.02 9.879-8.02 3.943 0 4.034 1.774.283 5.525-3.47 3.47-8.757 4.768-10.162 2.495z"/><path fill="#191918" stroke="#fff" d="M48.031 212.168c-.048-12.134-.386-24.214-.75-26.844l-.662-4.782-7.69-3.337C19.36 168.71 8.98 158.938 6.171 146.356 4 136.64 8.114 128.054 18.828 119.933c6.04-4.578 49.352-26.411 113.29-57.11C247.683 7.34 288.309-6.444 336.082-6.374c21.995.032 37.034 3.009 52.538 10.397 19.838 9.455 30.92 21.464 36.03 39.043 1.334 4.586 1.597 8.303 1.2 16.957-.848 18.527-6.412 34.74-20.299 59.15l-7.433 13.066.66 18.235.661 18.235 29.09 14.362c31.157 15.382 36.9 19.07 36.396 23.371-.777 6.622-19.152 12.35-48.488 15.115-32.377 3.05-131.05 5.096-190.302 3.945-63.055-1.226-98.585.306-161.265 6.951l-16.75 1.776zm60.588-27.4c60.522-15.241 106.173-22.238 171.156-26.235 25.16-1.547 80.699-.69 95.844 1.48 6.05.867 11.112 1.58 11.25 1.585.137.005.25-4.218.25-9.383 0-10.967 1.708-9.705-16.331-12.067-54.97-7.199-146.049-1.64-221.726 13.53-32.748 6.564-58.858 13.304-79.693 20.57l-10.25 3.576.013 8.641c.023 14.057-1.225 13.405 15.289 7.992 7.809-2.56 23.198-6.92 34.198-9.69zm246.154-62.513c12.04-.968 25.295-11.002 31.867-24.126 2.012-4.017 3.858-8.815 4.104-10.663.246-1.848.702-5.017 1.013-7.043.31-2.026.023-6.895-.639-10.82-3.964-23.505-24.756-40.448-47.5-38.709-12.81.98-23.402 6.714-32.084 17.369-7.812 9.587-11.178 24.535-8.467 37.596 3.848 18.536 20.467 34.496 38.101 36.59 3.548.422 6.9.644 7.45.493.55-.15 3.32-.46 6.155-.687z"/></g></svg>