<?xml version="1.0" encoding="UTF-8" standalone="no"?>
<!-- Created with Inkscape (http://www.inkscape.org/) -->

<svg
   version="1.1"
   id="svg1"
   width="459.34299"
   height="459.34299"
   viewBox="0 0 459.34299 459.34299"
   sodipodi:docname="logo.svg"
   inkscape:version="1.4 (86a8ad7, 2024-10-11)"
   xmlns:inkscape="http://www.inkscape.org/namespaces/inkscape"
   xmlns:sodipodi="http://sodipodi.sourceforge.net/DTD/sodipodi-0.dtd"
   xmlns="http://www.w3.org/2000/svg"
   xmlns:svg="http://www.w3.org/2000/svg">
  <defs
     id="defs1" />
  <sodipodi:namedview
     id="namedview1"
     pagecolor="#3e3e3e"
     bordercolor="#000000"
     borderopacity="0.25"
     inkscape:showpageshadow="2"
     inkscape:pageopacity="0.0"
     inkscape:pagecheckerboard="0"
     inkscape:deskcolor="#d1d1d1"
     inkscape:zoom="1.2432807"
     inkscape:cx="128.28961"
     inkscape:cy="262.61165"
     inkscape:window-width="1920"
     inkscape:window-height="1111"
     inkscape:window-x="2391"
     inkscape:window-y="-9"
     inkscape:window-maximized="1"
     inkscape:current-layer="g12" />
  <g
     inkscape:groupmode="layer"
     inkscape:label="Image"
     id="g1"
     transform="translate(6.3330038,-7.844458)">
    <g
       id="g9"
       transform="translate(-11.943592,14.218568)">
      <g
         id="g12"
         transform="translate(2.3053664e-4,109.26021)">
        <rect
           style="fill:#ffffff;stroke:#ffffff;stroke-width:4.93974;paint-order:stroke markers fill"
           id="rect11"
           width="332.20596"
           height="64.896919"
           x="54.492329"
           y="134.64394" />
        <ellipse
           style="fill:#ffffff;stroke:#ffffff;stroke-width:5;paint-order:stroke markers fill"
           id="path12"
           cx="346.57181"
           cy="75.240463"
           rx="52.608696"
           ry="52.039951" />
        <path
           style="fill:#298c8b"
           d="m 341.16839,122.44979 c -17.63403,-2.09437 -34.25296,-18.05459 -38.10108,-36.590882 -1.60362,-7.724621 -0.70997,-19.459523 2.02539,-26.596234 4.13783,-10.795816 15.05902,-21.601919 26.02598,-25.75173 26.16784,-9.901702 55.18586,7.553945 59.99949,36.092394 0.66206,3.925091 0.94933,8.793986 0.63838,10.819768 -0.31094,2.025781 -0.76647,5.195157 -1.01229,7.043057 -0.24583,1.847901 -2.09269,6.646032 -4.10414,10.662522 -6.57245,13.123925 -19.82621,23.158175 -31.86693,24.126055 -2.83498,0.22788 -5.60451,0.53737 -6.15451,0.68774 -0.55,0.15038 -3.90263,-0.0713 -7.45029,-0.49268 z m 12.26635,-9.43548 c 5.99396,-2.04234 13.54742,-8.84214 16.59034,-14.935015 3.78793,-7.584599 4.25269,-24.515459 0.63485,-23.127164 -0.75625,0.290202 -8.72776,5.393616 -17.71446,11.340921 -8.98671,5.947316 -19.59468,12.838293 -23.57327,15.313298 -3.97859,2.475 -7.0903,4.95 -6.91491,5.5 0.17538,0.55 3.13526,2.4625 6.57751,4.25 5.24835,2.72538 7.34572,3.25 12.99311,3.25 3.70397,0 8.83705,-0.71641 11.40683,-1.59203 z m -1.56606,-27.733323 c 10.5875,-6.941177 19.25,-12.879891 19.25,-13.197142 0,-1.250498 -2.95525,-6.19547 -4.43801,-7.42605 -1.35644,-1.12575 -3.44396,0.520093 -15.35443,12.105738 -7.5815,7.374743 -15.67464,14.927544 -17.98476,16.784002 -2.31011,1.85646 -4.88873,4.42621 -5.73027,5.71055 l -1.53006,2.335175 3.26876,-1.845975 c 1.79783,-1.01529 11.93127,-7.52512 22.51877,-14.466298 z m 15.5,-25.53594 c 5.3625,-5.213446 9.75,-9.829526 9.75,-10.257956 0,-1.405576 -6.54885,-5.810289 -10.9444,-7.361128 -5.60311,-1.976892 -14.66888,-1.936947 -20.17987,0.08892 -2.60541,0.957755 -8.21922,1.707531 -13.87573,1.853229 -9.71771,0.250304 -16,1.795424 -16,3.935175 0,0.660707 1.4625,1.737263 3.25,2.392346 1.7875,0.655083 4.56631,2.25096 6.17512,3.546393 l 2.92513,2.355334 -1.67513,5.970099 c -0.92131,3.28355 -1.67512,7.155923 -1.67512,8.605269 0,5.263104 2.18938,12.640684 5.12496,17.269609 l 3.00144,4.732768 12.1868,-11.825531 c 6.70274,-6.504044 16.5743,-16.091081 21.9368,-21.304527 z m -19.73723,-1.118035 c -1.6939,-2.740789 4.809,-8.020667 9.87855,-8.020667 3.94314,0 4.03414,1.774536 0.28335,5.525329 -3.46973,3.469727 -8.75724,4.76812 -10.1619,2.495338 z"
           id="path10"
           sodipodi:nodetypes="sssssssssssssssssssssssssssscsssssssssscssscssssss" />
        <path
           style="fill:#191918;stroke:#ffffff;stroke-opacity:1"
           d="m 48.031078,212.16765 c -0.04818,-12.13372 -0.385683,-24.21335 -0.75,-26.84363 l -0.662394,-4.78234 -7.689243,-3.33704 C 19.358513,168.7111 8.9802861,158.93807 6.1708606,146.35635 4.0013222,136.6403 8.1143419,128.05414 18.82827,119.93329 24.868153,115.35523 68.180201,93.521575 132.11868,62.823456 247.68195,7.3392755 288.30799,-6.4437461 336.08067,-6.3738459 c 21.99511,0.032183 37.03455,3.0084193 52.53801,10.3970334 19.83806,9.4543925 30.92083,21.4634395 36.03125,39.0426745 1.33335,4.586544 1.59638,8.303438 1.19999,16.957289 -0.84862,18.526863 -6.41297,34.740424 -20.29948,59.149279 l -7.43347,13.06609 0.66051,18.23506 0.66052,18.23506 29.09034,14.36205 c 31.15629,15.38202 36.90004,19.0704 36.39536,23.37152 -0.77703,6.62227 -19.1514,12.34984 -48.48779,15.11437 -32.3774,3.05111 -131.04968,5.09666 -190.30158,3.94511 -63.05523,-1.22547 -98.58528,0.30607 -161.265646,6.95142 l -16.75,1.77584 z m 60.587602,-27.40034 c 60.52265,-15.24055 106.17328,-22.23775 171.15654,-26.23439 25.16003,-1.5474 80.69871,-0.68941 95.84346,1.48065 6.05,0.86689 11.1125,1.5799 11.25,1.58447 0.1375,0.005 0.25,-4.21791 0.25,-9.38328 0,-10.96702 1.70847,-9.70463 -16.33083,-12.06691 -54.96983,-7.19839 -146.04864,-1.6408 -221.72602,13.52964 -32.74751,6.56462 -58.858106,13.30464 -79.693146,20.57145 l -10.25,3.57498 0.01365,8.64122 c 0.02221,14.05658 -1.225322,13.40442 15.288169,7.99202 7.809002,-2.55945 23.198181,-6.91988 34.198177,-9.68985 z m 246.15451,-62.51257 c 12.04072,-0.96788 25.29448,-11.00213 31.86693,-24.126055 2.01145,-4.01649 3.85831,-8.814621 4.10414,-10.662522 0.24582,-1.8479 0.70135,-5.017276 1.01229,-7.043057 0.31095,-2.025782 0.0237,-6.894677 -0.63838,-10.819768 -3.96464,-23.505058 -24.75593,-40.448601 -47.49949,-38.708973 -12.81139,0.979929 -23.40251,6.713193 -32.08466,17.368309 -7.81175,9.586927 -11.17814,24.535319 -8.46671,37.596234 3.84812,18.536292 20.46705,34.496512 38.10108,36.590892 3.54766,0.42135 6.90029,0.64306 7.45029,0.49268 0.55,-0.15037 3.31953,-0.45986 6.15451,-0.68774 z"
           id="path9" />
      </g>
    </g>
  </g>
</svg>
